<svg width="1200" height="630" viewBox="0 0 1200 630" fill="none" xmlns="http://www.w3.org/2000/svg">
  <rect width="1200" height="630" fill="#0B1020"/>
  <rect x="48" y="48" width="1104" height="534" rx="28" fill="url(#bg)"/>
  <circle cx="1030" cy="140" r="96" fill="#6DB33F" fill-opacity="0.14"/>
  <circle cx="180" cy="520" r="120" fill="#6DB33F" fill-opacity="0.12"/>
  <rect x="96" y="110" width="190" height="40" rx="20" fill="#6DB33F" fill-opacity="0.18" stroke="#6DB33F"/>
  <text x="126" y="136" fill="#C8F2B0" font-family="Arial, Helvetica, sans-serif" font-size="24" font-weight="700">BACKEND · SPRINGBOOT</text>

  <text x="96" y="235" fill="white" font-family="Arial, Helvetica, sans-serif" font-size="62" font-weight="800">Spring Boot 4.0</text>
  <text x="96" y="305" fill="#E6EDF7" font-family="Arial, Helvetica, sans-serif" font-size="42" font-weight="700">중요 변경점과 마이그레이션 포인트</text>
  <text x="96" y="370" fill="#B7C3D4" font-family="Arial, Helvetica, sans-serif" font-size="28" font-weight="500">Undertow 종료 · 모듈화 · 설정 키 변경 · Observability</text>

  <rect x="96" y="430" width="430" height="78" rx="18" fill="#121A2E" stroke="#2A3654"/>
  <text x="126" y="478" fill="#D7E1EE" font-family="Consolas, monospace" font-size="28">spring-boot: 3.x  →  4.0</text>

  <rect x="700" y="180" width="360" height="210" rx="24" fill="#11192C" stroke="#2A3654"/>
  <circle cx="760" cy="244" r="18" fill="#6DB33F"/>
  <rect x="795" y="229" width="210" height="10" rx="5" fill="#DCE6F4" fill-opacity="0.9"/>
  <rect x="795" y="252" width="155" height="10" rx="5" fill="#96A4BA" fill-opacity="0.9"/>
  <circle cx="760" cy="304" r="18" fill="#6DB33F" fill-opacity="0.85"/>
  <rect x="795" y="289" width="190" height="10" rx="5" fill="#DCE6F4" fill-opacity="0.9"/>
  <rect x="795" y="312" width="130" height="10" rx="5" fill="#96A4BA" fill-opacity="0.9"/>
  <circle cx="760" cy="364" r="18" fill="#6DB33F" fill-opacity="0.7"/>
  <rect x="795" y="349" width="175" height="10" rx="5" fill="#DCE6F4" fill-opacity="0.9"/>
  <rect x="795" y="372" width="145" height="10" rx="5" fill="#96A4BA" fill-opacity="0.9"/>

  <text x="96" y="558" fill="#7E8CA5" font-family="Arial, Helvetica, sans-serif" font-size="22">Building Systems &amp; Better Life · BBACK</text>

  <defs>
    <linearGradient id="bg" x1="48" y1="48" x2="1152" y2="582" gradientUnits="userSpaceOnUse">
      <stop stop-color="#11192C"/>
      <stop offset="1" stop-color="#0E1525"/>
    </linearGradient>
  </defs>
</svg>
